<svg width="23" height="29" viewBox="0 0 23 29" fill="none" xmlns="http://www.w3.org/2000/svg">
<path d="M22.9941 25.0681L21.3487 6.36933C21.3135 5.95419 20.9668 5.63988 20.5613 5.63988H17.1765C17.1295 2.52045 14.6027 0 11.5 0C8.39729 0 5.87046 2.52045 5.82345 5.63988H2.43868C2.02734 5.63988 1.68651 5.95419 1.65125 6.36933L0.00587648 25.0681C0.00587648 25.0918 0 25.1155 0 25.1393C0 27.2683 1.93332 29 4.31323 29H18.6868C21.0667 29 23 27.2683 23 25.1393C23 25.1155 23 25.0918 22.9941 25.0681ZM11.5 1.60123C13.7271 1.60123 15.5429 3.40409 15.5899 5.63988H7.41007C7.45708 3.40409 9.27287 1.60123 11.5 1.60123ZM18.6868 27.3988H4.31323C2.82064 27.3988 1.61012 26.4025 1.58661 25.1748L3.16147 7.24703H5.81758V9.67853C5.81758 10.1233 6.17016 10.4791 6.61088 10.4791C7.05161 10.4791 7.40419 10.1233 7.40419 9.67853V7.24703H15.5899V9.67853C15.5899 10.1233 15.9425 10.4791 16.3832 10.4791C16.824 10.4791 17.1765 10.1233 17.1765 9.67853V7.24703H19.8327L21.4134 25.1748C21.3899 26.4025 20.1735 27.3988 18.6868 27.3988Z" fill="white"></path>
</svg>
