<svg width="26" height="21" viewBox="0 0 26 21" fill="none" xmlns="http://www.w3.org/2000/svg">
<path d="M2.49548 6.95581C2.82438 7.18303 3.81579 7.85788 5.46977 8.98C7.12381 10.1021 8.39091 10.9661 9.27113 11.5721C9.36784 11.6385 9.5733 11.7829 9.88761 12.0054C10.202 12.2281 10.4632 12.408 10.671 12.5453C10.879 12.6825 11.1305 12.8365 11.4256 13.0069C11.7207 13.1771 11.9988 13.3052 12.26 13.39C12.5212 13.4754 12.763 13.5178 12.9854 13.5178H13H13.0146C13.237 13.5178 13.4789 13.4754 13.7401 13.39C14.0012 13.3052 14.2796 13.177 14.5744 13.0069C14.8693 12.8363 15.1208 12.6825 15.3288 12.5453C15.5368 12.408 15.7978 12.2281 16.1122 12.0054C16.4265 11.7827 16.6322 11.6385 16.7289 11.5721C17.6186 10.9661 19.8822 9.42722 23.519 6.95551C24.2251 6.47276 24.815 5.89026 25.2888 5.2084C25.7631 4.52684 26 3.81184 26 3.06381C26 2.43872 25.7701 1.90363 25.3106 1.4586C24.8512 1.01346 24.307 0.791016 23.6785 0.791016H2.32133C1.57659 0.791016 1.00346 1.03719 0.602044 1.52954C0.200681 2.02199 0 2.63753 0 3.37611C0 3.97269 0.266084 4.61918 0.797999 5.31517C1.32986 6.01121 1.89588 6.55814 2.49548 6.95581Z" fill="#A4A4A4"></path>
<path d="M24.5489 8.4755C21.3766 10.5776 18.9678 12.2113 17.3237 13.3762C16.7724 13.7738 16.3251 14.0841 15.9816 14.3065C15.6382 14.5291 15.1813 14.7563 14.6106 14.9882C14.04 15.2205 13.5082 15.3362 13.0148 15.3362H13H12.9854C12.4921 15.3362 11.9601 15.2205 11.3895 14.9882C10.8189 14.7563 10.3618 14.5291 10.0184 14.3065C9.67514 14.0841 9.22773 13.7738 8.67646 13.3762C7.37058 12.4387 4.96698 10.805 1.46555 8.4755C0.914068 8.11589 0.425603 7.70369 0 7.23975V18.5179C0 19.1433 0.227209 19.6781 0.68188 20.1232C1.13645 20.5684 1.68305 20.791 2.32148 20.791H23.6787C24.3169 20.791 24.8635 20.5684 25.3181 20.1232C25.7729 19.6779 26 19.1434 26 18.5179V7.23975C25.584 7.69409 25.1005 8.10629 24.5489 8.4755Z" fill="#A4A4A4"></path>
</svg>
