<svg width="26" height="37" viewBox="0 0 26 37" fill="none" xmlns="http://www.w3.org/2000/svg">
<path d="M13 0.895508C5.83176 0.895508 0 6.72727 0 13.8954C0 22.7914 11.6337 35.8511 12.129 36.4027C12.5943 36.9209 13.4066 36.92 13.871 36.4027C14.3663 35.8511 26 22.7914 26 13.8954C25.9999 6.72727 20.1682 0.895508 13 0.895508ZM13 20.4361C9.39348 20.4361 6.45944 17.502 6.45944 13.8954C6.45944 10.2889 9.39355 7.35488 13 7.35488C16.6064 7.35488 19.5405 10.289 19.5405 13.8955C19.5405 17.502 16.6064 20.4361 13 20.4361Z" fill="#A4A4A4"></path>
</svg>
