<svg width="26" height="26" viewBox="0 0 26 26" fill="none" xmlns="http://www.w3.org/2000/svg">
<path d="M22.1904 3.80613C17.113 -1.26978 8.88204 -1.26857 3.80613 3.80892C-1.26978 8.88641 -1.26857 17.1173 3.80892 22.1932C8.88641 27.2692 17.1173 27.2679 22.1932 22.1905C24.631 19.7519 26.0001 16.4449 25.9994 12.9969C25.9986 9.54944 24.6285 6.24346 22.1904 3.80613ZM19.6876 18.1084C19.687 18.109 19.6864 18.1096 19.6858 18.1101V18.1058L19.0272 18.7601C18.1753 19.6227 16.9347 19.9776 15.7556 19.6961C14.5676 19.3781 13.4382 18.8719 12.4103 18.1968C11.4554 17.5865 10.5704 16.873 9.7714 16.0692C9.03626 15.3394 8.37582 14.5381 7.79977 13.6772C7.16969 12.7509 6.67098 11.7418 6.31781 10.6786C5.91294 9.42965 6.24844 8.05915 7.18447 7.13841L7.95576 6.36711C8.17021 6.15171 8.51866 6.15094 8.73402 6.36539C8.73458 6.36595 8.73519 6.3665 8.73574 6.36711L11.171 8.80237C11.3864 9.01681 11.3872 9.36526 11.1727 9.58062C11.1722 9.58118 11.1716 9.58174 11.171 9.58235L9.74104 11.0123C9.33073 11.4181 9.27914 12.0631 9.61972 12.529C10.1369 13.2388 10.7093 13.9067 11.3314 14.5266C12.025 15.2232 12.779 15.8569 13.5846 16.4202C14.0501 16.7449 14.6812 16.6902 15.0839 16.2902L16.4662 14.8863C16.6806 14.6709 17.0291 14.6701 17.2444 14.8845C17.245 14.8851 17.2455 14.8857 17.2462 14.8863L19.6858 17.3302C19.9012 17.5446 19.902 17.893 19.6876 18.1084Z" fill="#A4A4A4"></path>
</svg>
