<svg width="69" height="87" viewBox="0 0 69 87" fill="none" xmlns="http://www.w3.org/2000/svg">
<path d="M24.9998 24.9963L24.9999 34L34.4772 39.4758L65.4259 24.8162C65.9687 24.5529 66.6088 24.5945 67.1098 24.9132C67.235 24.9963 67.3463 25.0795 67.4437 25.1903C67.3046 24.8993 67.0819 24.6499 66.7897 24.4698L27.7002 0.263372C27.1435 -0.0830277 26.4477 -0.0830277 25.8911 0.23566C25.3205 0.554348 24.9866 1.16401 25.0005 1.81524L24.9585 17.7496L25.0002 19.1491L24.9998 23.4167C24.9859 23.5 24.972 24.3174 24.9859 25.0102L24.9998 24.9963Z" fill="#A6A6A6"></path>
<path d="M68.3963 26.3681C68.3963 25.9108 68.2014 25.4951 67.8953 25.1764C67.7979 25.0795 67.6865 24.9825 67.5613 24.8993C67.0464 24.5806 66.4202 24.5529 65.8775 24.8023L1.00194 55.5349C0.389645 55.8259 0 56.4494 0 57.1284V84.4939C0 85.1036 0.306148 85.6579 0.821034 85.9765C1.11327 86.1567 1.43333 86.2537 1.76731 86.2537C2.03171 86.2537 2.28219 86.1982 2.53268 86.0874L10.7708 82.18L67.8675 55.1331C68.4937 54.8421 68.8833 54.2048 68.8694 53.512L68.4102 26.3681H68.3963Z" fill="white"></path>
</svg>
