<svg width="92" height="55" viewBox="0 0 92 55" fill="none" xmlns="http://www.w3.org/2000/svg">
<path d="M22.5 43.5L26.9132 41V27.2721L1.19676 15.3282C0.570549 15.0372 0.16699 14.4137 0.180906 13.7209C0.180906 13.3745 0.292232 13.0558 0.473138 12.7787C0.16699 13.0974 0 13.5269 0 13.9703L0.153074 52.7671C0.153074 53.3767 0.487054 53.9587 1.01585 54.2635C1.29417 54.4298 1.61424 54.5129 1.92038 54.5129C2.1987 54.5129 2.49093 54.4437 2.74142 54.3051L14.9734 47.8621L19.9952 45.0934L21 44.5L22.5 43.5Z" fill="#A6A6A6"></path>
<path d="M1.19676 15.3282L61.5218 43.3589C61.7584 43.4697 62.0089 43.5251 62.2733 43.5251C62.5377 43.5251 62.7882 43.4697 63.0247 43.3589L79.4037 35.6688L79.5428 35.5995L90.1049 30.6391C90.7312 30.3481 91.1208 29.7246 91.1208 29.0318C91.1208 28.339 90.7172 27.7293 90.0771 27.4383L79.0697 22.4779H79.0279L29.4459 0.15588C28.9867 -0.05196 28.4579 -0.05196 27.9986 0.15588L1.22459 12.1275C0.904528 12.266 0.654044 12.5016 0.473138 12.7787C0.292232 13.0558 0.194821 13.3884 0.180906 13.7209C0.180906 14.4137 0.570549 15.0372 1.19676 15.3282Z" fill="white"></path>
</svg>
