<svg width="70" height="83" viewBox="0 0 70 83" fill="none" xmlns="http://www.w3.org/2000/svg">
<path d="M43.5 48.5C43.5 48.5 43.5 48.5 42.5 48C42.5691 48.044 41.5 47.5 41.5 47.5L38.1572 46.0194C37.9484 46.0332 37.7397 46.0748 37.5449 46.1718L28.3744 50.4117V80.5346C28.3744 81.1304 28.0682 81.6847 27.5672 82.0172C27.442 82.1004 27.3168 82.1419 27.1776 82.1973C27.2333 82.1835 27.2889 82.1696 27.3446 82.1419L68.8833 62.9098C69.5095 62.6188 69.9131 61.9953 69.8992 61.3025C69.8992 60.6097 69.4956 60.0001 68.8694 59.7091L48.9141 50.8135L47 50L44.5 49L43.5 48.5Z" fill="#A6A6A6"></path>
<path d="M28.3744 80.5346L28.3744 12.9728C28.3744 12.28 27.9708 11.6565 27.3307 11.3655L2.49093 0.156018C1.94821 -0.0933901 1.30809 -0.037966 0.807117 0.280722C0.306148 0.59941 0 1.16751 0 1.76331V69.3251C0 70.0179 0.403559 70.6414 1.04369 70.9324L25.8834 82.1419C25.8834 82.1419 25.9948 82.1835 26.0504 82.1973C26.0922 82.2112 26.1339 82.2251 26.1757 82.2389C26.3148 82.2805 26.4679 82.3082 26.621 82.3082C26.774 82.3082 26.9271 82.2805 27.0663 82.2389C27.108 82.2389 27.1498 82.2112 27.1915 82.1973C27.3307 82.1558 27.4559 82.1004 27.5812 82.0172C28.0821 81.6985 28.3883 81.1304 28.3883 80.5346H28.3744Z" fill="white"></path>
</svg>
